<svg width="26" height="26" viewBox="0 0 26 26" fill="none" xmlns="http://www.w3.org/2000/svg">
<path fill-rule="evenodd" clip-rule="evenodd" d="M11.3508 18.385C11.6762 18.6935 12.1175 18.8667 12.5776 18.8667C13.0377 18.8667 13.479 18.6935 13.8044 18.385L23.6203 9.07724C23.9363 8.76692 24.1112 8.3513 24.1073 7.9199C24.1033 7.48849 23.9208 7.07582 23.5991 6.77075C23.2774 6.46569 22.8422 6.29265 22.3872 6.2889C21.9323 6.28515 21.494 6.451 21.1667 6.75071L12.5776 14.8952L3.98847 6.75071C3.66122 6.451 3.22291 6.28515 2.76795 6.2889C2.31299 6.29265 1.87779 6.46569 1.55607 6.77075C1.23436 7.07582 1.05187 7.48849 1.04792 7.9199C1.04396 8.3513 1.21886 8.76692 1.53494 9.07724L11.3508 18.385Z" fill="#FF0458"/>
</svg>
